<?xml version="1.0" encoding="UTF-8"?>
<svg id="Layer_1" xmlns="http://www.w3.org/2000/svg" xmlns:xlink="http://www.w3.org/1999/xlink" version="1.1" viewBox="0 0 221 246.5">
  <!-- Generator: Adobe Illustrator 29.3.1, SVG Export Plug-In . SVG Version: 2.1.0 Build 151)  -->
  <defs>
    <style>
      .st0 {
        fill: url(#linear-gradient2);
      }

      .st1 {
        fill: url(#linear-gradient1);
      }

      .st2 {
        fill: url(#linear-gradient9);
      }

      .st3 {
        fill: url(#linear-gradient3);
      }

      .st4 {
        fill: url(#linear-gradient6);
      }

      .st5 {
        fill: url(#linear-gradient8);
      }

      .st6 {
        fill: url(#linear-gradient7);
      }

      .st7 {
        fill: url(#linear-gradient5);
      }

      .st8 {
        fill: url(#linear-gradient4);
      }

      .st9 {
        fill: url(#linear-gradient31);
      }

      .st10 {
        fill: url(#linear-gradient30);
      }

      .st11 {
        fill: url(#linear-gradient38);
      }

      .st12 {
        fill: url(#linear-gradient32);
      }

      .st13 {
        fill: url(#linear-gradient39);
      }

      .st14 {
        fill: url(#linear-gradient34);
      }

      .st15 {
        fill: url(#linear-gradient37);
      }

      .st16 {
        fill: url(#linear-gradient35);
      }

      .st17 {
        fill: url(#linear-gradient33);
      }

      .st18 {
        fill: url(#linear-gradient36);
      }

      .st19 {
        fill: url(#linear-gradient40);
      }

      .st20 {
        fill: url(#linear-gradient41);
      }

      .st21 {
        fill: url(#linear-gradient28);
      }

      .st22 {
        fill: url(#linear-gradient29);
      }

      .st23 {
        fill: url(#linear-gradient18);
      }

      .st24 {
        fill: url(#linear-gradient13);
      }

      .st25 {
        fill: url(#linear-gradient12);
      }

      .st26 {
        fill: url(#linear-gradient15);
      }

      .st27 {
        fill: url(#linear-gradient16);
      }

      .st28 {
        fill: url(#linear-gradient11);
      }

      .st29 {
        fill: url(#linear-gradient10);
      }

      .st30 {
        fill: url(#linear-gradient17);
      }

      .st31 {
        fill: url(#linear-gradient14);
      }

      .st32 {
        fill: url(#linear-gradient19);
      }

      .st33 {
        fill: url(#linear-gradient23);
      }

      .st34 {
        fill: url(#linear-gradient22);
      }

      .st35 {
        fill: url(#linear-gradient24);
      }

      .st36 {
        fill: url(#linear-gradient25);
      }

      .st37 {
        fill: url(#linear-gradient21);
      }

      .st38 {
        fill: url(#linear-gradient20);
      }

      .st39 {
        fill: url(#linear-gradient27);
      }

      .st40 {
        fill: url(#linear-gradient26);
      }

      .st41 {
        fill: #231f20;
      }

      .st42 {
        fill: url(#linear-gradient);
      }
    </style>
    <linearGradient id="linear-gradient" x1="83.5" y1="28.5" x2="83.5" y2="169.8" gradientUnits="userSpaceOnUse">
      <stop offset="0" stop-color="#00a38a"/>
      <stop offset="1" stop-color="#2a3b90"/>
    </linearGradient>
    <linearGradient id="linear-gradient1" x1="56" y1="27.6" x2="56" y2="168.6" gradientUnits="userSpaceOnUse">
      <stop offset="0" stop-color="#00a38a"/>
      <stop offset="1" stop-color="#2a3b90"/>
    </linearGradient>
    <linearGradient id="linear-gradient2" x1="80.8" y1="29.1" x2="80.8" y2="170.2" xlink:href="#linear-gradient"/>
    <linearGradient id="linear-gradient3" x1="99.5" y1="29.3" x2="99.5" y2="169.8" gradientUnits="userSpaceOnUse">
      <stop offset="0" stop-color="#00a38a"/>
      <stop offset="1" stop-color="#2a3b90"/>
    </linearGradient>
    <linearGradient id="linear-gradient4" x1="114.3" y1="29.2" x2="114.3" y2="165.8" gradientUnits="userSpaceOnUse">
      <stop offset="0" stop-color="#00a38a"/>
      <stop offset="1" stop-color="#2a3b90"/>
    </linearGradient>
    <linearGradient id="linear-gradient5" x1="113.1" y1="29.1" x2="113.1" y2="166" gradientUnits="userSpaceOnUse">
      <stop offset="0" stop-color="#00a38a"/>
      <stop offset="1" stop-color="#2a3b90"/>
    </linearGradient>
    <linearGradient id="linear-gradient6" x1="80.4" y1="29.5" x2="80.4" y2="170.1" xlink:href="#linear-gradient"/>
    <linearGradient id="linear-gradient7" x1="76.9" y1="30.1" x2="76.9" y2="169.8" gradientUnits="userSpaceOnUse">
      <stop offset="0" stop-color="#00a38a"/>
      <stop offset="1" stop-color="#2a3b90"/>
    </linearGradient>
    <linearGradient id="linear-gradient8" x1="71.2" y1="31.1" x2="71.2" y2="169.4" xlink:href="#linear-gradient7"/>
    <linearGradient id="linear-gradient9" x1="68.4" y1="30.1" x2="68.4" y2="168.7" xlink:href="#linear-gradient7"/>
    <linearGradient id="linear-gradient10" x1="63.8" y1="29" x2="63.8" y2="169.8" xlink:href="#linear-gradient1"/>
    <linearGradient id="linear-gradient11" x1="57.2" y1="28.2" x2="57.2" y2="167.5" xlink:href="#linear-gradient1"/>
    <linearGradient id="linear-gradient12" x1="129.2" y1="28.9" x2="129.2" y2="165.9" gradientUnits="userSpaceOnUse">
      <stop offset="0" stop-color="#00a38a"/>
      <stop offset="1" stop-color="#2a3b90"/>
    </linearGradient>
    <linearGradient id="linear-gradient13" x1="56.1" y1="28.3" x2="56.1" y2="168.6" xlink:href="#linear-gradient1"/>
    <linearGradient id="linear-gradient14" x1="55" y1="27.7" x2="55" y2="168.8" xlink:href="#linear-gradient1"/>
    <linearGradient id="linear-gradient15" x1="44.1" y1="29.9" x2="44.1" y2="171.7" xlink:href="#linear-gradient7"/>
    <linearGradient id="linear-gradient16" x1="60.4" y1="29.6" x2="60.4" y2="168.9" xlink:href="#linear-gradient7"/>
    <linearGradient id="linear-gradient17" x1="137.4" y1="30.3" x2="137.4" y2="165.5" gradientUnits="userSpaceOnUse">
      <stop offset="0" stop-color="#00a38a"/>
      <stop offset="1" stop-color="#2a3b90"/>
    </linearGradient>
    <linearGradient id="linear-gradient18" x1="165" y1="30" x2="165" y2="166.8" gradientUnits="userSpaceOnUse">
      <stop offset="0" stop-color="#00a38a"/>
      <stop offset="1" stop-color="#2a3b90"/>
    </linearGradient>
    <linearGradient id="linear-gradient19" x1="140.1" y1="30" x2="140.1" y2="165.6" gradientUnits="userSpaceOnUse">
      <stop offset="0" stop-color="#00a38a"/>
      <stop offset="1" stop-color="#2a3b90"/>
    </linearGradient>
    <linearGradient id="linear-gradient20" x1="147.6" y1="29.4" x2="147.6" y2="164.1" gradientUnits="userSpaceOnUse">
      <stop offset="0" stop-color="#00a38a"/>
      <stop offset="1" stop-color="#2a3b90"/>
    </linearGradient>
    <linearGradient id="linear-gradient21" x1="136.2" y1="29.2" x2="136.2" y2="166.5" gradientUnits="userSpaceOnUse">
      <stop offset="0" stop-color="#00a38a"/>
      <stop offset="1" stop-color="#2a3b90"/>
    </linearGradient>
    <linearGradient id="linear-gradient22" x1="129.4" y1="29.4" x2="129.4" y2="165.7" xlink:href="#linear-gradient12"/>
    <linearGradient id="linear-gradient23" x1="140.6" y1="30.3" x2="140.6" y2="165.4" xlink:href="#linear-gradient19"/>
    <linearGradient id="linear-gradient24" x1="109.9" y1="28.5" x2="109.9" y2="166.3" gradientUnits="userSpaceOnUse">
      <stop offset="0" stop-color="#00a38a"/>
      <stop offset="1" stop-color="#2a3b90"/>
    </linearGradient>
    <linearGradient id="linear-gradient25" x1="109.9" y1="28.9" x2="109.9" y2="166.7" gradientUnits="userSpaceOnUse">
      <stop offset="0" stop-color="#00a38a"/>
      <stop offset="1" stop-color="#2a3b90"/>
    </linearGradient>
    <linearGradient id="linear-gradient26" x1="144.1" y1="29.2" x2="144.1" y2="164.8" gradientUnits="userSpaceOnUse">
      <stop offset="0" stop-color="#00a38a"/>
      <stop offset="1" stop-color="#2a3b90"/>
    </linearGradient>
    <linearGradient id="linear-gradient27" x1="149.8" y1="29.8" x2="149.8" y2="166.7" gradientUnits="userSpaceOnUse">
      <stop offset="0" stop-color="#00a38a"/>
      <stop offset="1" stop-color="#2a3b90"/>
    </linearGradient>
    <linearGradient id="linear-gradient28" x1="152.6" y1="28.8" x2="152.6" y2="165.9" gradientUnits="userSpaceOnUse">
      <stop offset="0" stop-color="#00a38a"/>
      <stop offset="1" stop-color="#2a3b90"/>
    </linearGradient>
    <linearGradient id="linear-gradient29" x1="157.2" y1="30.5" x2="157.2" y2="164.7" xlink:href="#linear-gradient28"/>
    <linearGradient id="linear-gradient30" x1="163.8" y1="30.4" x2="163.8" y2="166.4" xlink:href="#linear-gradient18"/>
    <linearGradient id="linear-gradient31" x1="166.9" y1="29.5" x2="166.9" y2="169" xlink:href="#linear-gradient18"/>
    <linearGradient id="linear-gradient32" x1="168.5" y1="29.4" x2="168.5" y2="165.2" xlink:href="#linear-gradient18"/>
    <linearGradient id="linear-gradient33" x1="176.9" y1="30.6" x2="176.9" y2="167.2" gradientUnits="userSpaceOnUse">
      <stop offset="0" stop-color="#00a38a"/>
      <stop offset="1" stop-color="#2a3b90"/>
    </linearGradient>
    <linearGradient id="linear-gradient34" x1="160.6" y1="28.4" x2="160.6" y2="162.8" gradientUnits="userSpaceOnUse">
      <stop offset="0" stop-color="#00a38a"/>
      <stop offset="1" stop-color="#2a3b90"/>
    </linearGradient>
    <linearGradient id="linear-gradient35" x1="109.9" y1="26.9" x2="109.9" y2="166.6" gradientUnits="userSpaceOnUse">
      <stop offset="0" stop-color="#00a38a"/>
      <stop offset="1" stop-color="#2a3b90"/>
    </linearGradient>
    <linearGradient id="linear-gradient36" x1="109.9" y1="29" x2="109.9" y2="165.3" xlink:href="#linear-gradient35"/>
    <linearGradient id="linear-gradient37" x1="116.7" y1="29.5" x2="116.7" y2="164.9" gradientUnits="userSpaceOnUse">
      <stop offset="0" stop-color="#00a38a"/>
      <stop offset="1" stop-color="#2a3b90"/>
    </linearGradient>
    <linearGradient id="linear-gradient38" x1="102.5" y1="28.5" x2="102.5" y2="168.2" xlink:href="#linear-gradient5"/>
    <linearGradient id="linear-gradient39" x1="95.7" y1="27.9" x2="95.7" y2="168.5" xlink:href="#linear-gradient25"/>
    <linearGradient id="linear-gradient40" x1="121.5" y1="27.1" x2="121.5" y2="164.8" xlink:href="#linear-gradient25"/>
    <linearGradient id="linear-gradient41" x1="6.9" y1="182.6" x2="32.5" y2="227" gradientUnits="userSpaceOnUse">
      <stop offset="0" stop-color="#00a38a"/>
      <stop offset="1" stop-color="#2b3990"/>
    </linearGradient>
  </defs>
  <g>
    <path class="st42" d="M74,87.6c-1.2,0-2.2,1-2.2,2.2s1,2.2,2.2,2.2,1.7-.5,2-1.3h15c.4.8,1.1,1.3,2,1.3s2.2-1,2.2-2.2-1-2.2-2.2-2.2-1.7.5-2,1.3h-15c-.4-.8-1.2-1.3-2-1.3Z"/>
    <path class="st1" d="M53.7,104.7c0,1.2,1,2.2,2.2,2.2s2.2-1,2.2-2.2-.5-1.7-1.3-2v-17.7c.8-.4,1.3-1.1,1.3-2s-1-2.2-2.2-2.2-2.2,1-2.2,2.2.5,1.7,1.3,2v17.7c-.8.4-1.3,1.1-1.3,2Z"/>
    <path class="st0" d="M74,99.2c.9,0,1.7-.5,2-1.3h9.6c.4.8,1.2,1.3,2,1.3s2.2-1,2.2-2.2-1-2.2-2.2-2.2-1.7.5-2,1.3h-9.6c-.4-.8-1.1-1.3-2-1.3s-2.2,1-2.2,2.2,1,2.2,2.2,2.2Z"/>
    <path class="st3" d="M119.1,57c0-1.2-1-2.2-2.2-2.2s-1.7.5-2,1.3h-11.3l-5.4-7c0,0-.2-.1-.3-.1h-13.5c-.4-.8-1.1-1.3-2-1.3s-2.2,1-2.2,2.2,1,2.2,2.2,2.2,1.7-.5,2-1.3h12.8l5.4,7c0,0,.2.1.3.1h12c.4.8,1.1,1.3,2,1.3s2.2-1,2.2-2.2Z"/>
    <path class="st8" d="M122.7,52.4c1.2,0,2.2-1,2.2-2.2s-1-2.2-2.2-2.2-1.7.5-2,1.3h-12.8c-.4-.8-1.1-1.3-2-1.3s-2.2,1-2.2,2.2,1,2.2,2.2,2.2,1.7-.5,2-1.3h12.8c.4.8,1.1,1.3,2,1.3Z"/>
    <path class="st7" d="M119.7,137.9c.5,0,1-.2,1.4-.5,1-.8,1.2-2.2.4-3.2-.5-.7-1.4-1-2.3-.8l-3.5-4.6c0,0-.2-.1-.3-.1h-6.7c-.4-.8-1.1-1.3-2-1.3s-2.2,1-2.2,2.2,1,2.2,2.2,2.2,1.7-.5,2-1.3h6l3.1,4c-.4.8-.3,1.7.2,2.4h0c.4.6,1.1.9,1.8.9Z"/>
    <path class="st4" d="M77.9,105.5c.9,0,1.7-.5,2-1.3h.9c.4.8,1.2,1.3,2,1.3s2.2-1,2.2-2.2-1-2.2-2.2-2.2-1.7.5-2,1.3h-.9c-.4-.8-1.1-1.3-2-1.3s-2.2,1-2.2,2.2,1,2.2,2.2,2.2Z"/>
    <path class="st6" d="M84.3,82.6h0c.4.6,1.1.9,1.8.9s.9-.1,1.3-.4c.5-.4.8-.9.9-1.5,0-.6,0-1.2-.4-1.7-.5-.7-1.4-1-2.3-.8l-16-21.5c.4-.8.4-1.7-.2-2.4-.7-1-2.2-1.2-3.1-.5-.5.4-.8.9-.9,1.5,0,.6,0,1.2.4,1.7.5.7,1.4,1,2.3.8l16,21.5c-.4.8-.4,1.7.2,2.4Z"/>
    <path class="st5" d="M63.6,63.6l13.6,18.3c-.4.8-.4,1.7.2,2.4.4.5.9.8,1.5.9.1,0,.2,0,.3,0,.5,0,.9-.2,1.3-.4,1-.7,1.2-2.2.5-3.1-.5-.7-1.4-1-2.3-.8l-13.6-18.3c.4-.8.4-1.7-.2-2.4-.4-.5-.9-.8-1.5-.9-.6,0-1.2,0-1.7.4-1,.7-1.2,2.2-.5,3.1.5.7,1.4,1,2.3.8Z"/>
    <path class="st2" d="M77,108.1l-6.8-6.9v-22.1c0,0,0-.2,0-.2l-9.1-12.2c.4-.8.4-1.7-.2-2.4-.7-1-2.2-1.2-3.1-.5-.5.4-.8.9-.9,1.5s0,1.2.4,1.7c.5.7,1.4,1,2.3.8l8.8,11.8v22.2c0,0,0,.2.1.3l7.3,7.3c-.3.8-.1,1.7.5,2.4.4.4,1,.7,1.6.7s1.1-.2,1.6-.7c.9-.9.9-2.3,0-3.2-.6-.6-1.6-.8-2.4-.5Z"/>
    <path class="st29" d="M55.9,69.2c-.7-1-2.2-1.2-3.1-.5-1,.7-1.2,2.2-.5,3.1.5.7,1.4,1,2.3.8l7.4,9.8v22.6c0,0,0,.2.1.3l9.4,9.5c-.3.8-.1,1.7.5,2.4.4.4,1,.7,1.6.7.6,0,1.1-.2,1.6-.7.9-.9.9-2.3,0-3.2-.6-.6-1.6-.8-2.4-.5l-9-9v-22.5c0,0,0-.2,0-.2l-7.6-10.2c.4-.8.4-1.7-.2-2.4Z"/>
    <path class="st28" d="M51.3,92.4c0-1.2-1-2.2-2.2-2.2s-2.2,1-2.2,2.2.5,1.7,1.3,2v11.4c0,0,0,.2.1.3l11.1,11.1c0,0,.2.1.3.1h3.8c.4.8,1.1,1.3,2,1.3s2.2-1,2.2-2.2-1-2.2-2.2-2.2-1.7.5-2,1.3h-3.1l-10.3-10.3v-10.8c.8-.4,1.3-1.1,1.3-2Z"/>
    <path class="st25" d="M136.1,161.2c-.9,0-1.7.5-2,1.3h-2.1l-8.7-8.7v-2.6c.8-.4,1.3-1.1,1.3-2s-1-2.2-2.2-2.2-2.2,1-2.2,2.2.5,1.7,1.3,2v3.2c0,0,0,.2.1.3l9.6,9.6c0,0,.2.1.3.1h2.7c.4.8,1.2,1.3,2,1.3s2.2-1,2.2-2.2-1-2.2-2.2-2.2Z"/>
    <path class="st24" d="M41,87.6v19.9c0,0,0,.2.1.3l16.1,16.1c0,0,.2.1.3.1h9.5c.4.8,1.1,1.3,2,1.3s2.2-1,2.2-2.2-1-2.2-2.2-2.2-1.7.5-2,1.3h-8.9l-15.2-15.3v-18.6l2.7-2.7c.8.3,1.7.1,2.4-.5.9-.9.9-2.3,0-3.2-.4-.4-1-.7-1.6-.7h0c-.6,0-1.2.2-1.6.7-.6.6-.8,1.6-.5,2.4l-3.1,3.2c0,0-.1.2-.1.3Z"/>
    <path class="st31" d="M74.4,127.3c-.9,0-1.7.5-2,1.3h-16.2l-19.6-19.7v-7.2c.8-.4,1.3-1.1,1.3-2s-1-2.2-2.2-2.2-2.2,1-2.2,2.2.5,1.7,1.3,2v7.8c0,0,0,.2.1.3l20.5,20.5c0,0,.2.1.3.1h16.9c.4.8,1.1,1.3,2,1.3s2.2-1,2.2-2.2-1-2.2-2.2-2.2Z"/>
    <path class="st26" d="M35.6,94.4c1.2,0,2.2-1,2.2-2.2s-.5-1.7-1.3-2v-5.9l4-4.1c0,0,.1-.2.1-.3v-13.4l11.1-11.4c.8.3,1.7,0,2.4-.5.4-.4.6-1,.6-1.6,0-.6-.2-1.2-.7-1.6-.9-.9-2.3-.8-3.2,0-.6.6-.8,1.6-.5,2.4l-11.6,11.9c0,0-.1.2-.1.3v13.4l-4,4.1c0,0-.1.2-.1.3v6.5c-.8.4-1.3,1.1-1.3,2s1,2.2,2.2,2.2Z"/>
    <path class="st27" d="M72.4,50.9c.4.8,1.2,1.3,2,1.3s2.2-1,2.2-2.2-1-2.2-2.2-2.2-1.7.5-2,1.3h-7.5c0,0-.2,0-.3.1l-19.1,19.2c0,0-.1.2-.1.3v5c-.8.4-1.3,1.1-1.3,2s1,2.2,2.2,2.2,2.2-1,2.2-2.2-.5-1.7-1.3-2v-4.4l18.2-18.3h6.9Z"/>
    <path class="st30" d="M127.9,92.1c.9,0,1.7-.5,2-1.3h15c.4.8,1.1,1.3,2,1.3s2.2-1,2.2-2.2-1-2.2-2.2-2.2-1.7.5-2,1.3h-15c-.4-.8-1.2-1.3-2-1.3s-2.2,1-2.2,2.2,1,2.2,2.2,2.2Z"/>
    <path class="st23" d="M167.3,82.9c0-1.2-1-2.2-2.2-2.2s-2.2,1-2.2,2.2.5,1.7,1.3,2v17.7c-.8.4-1.3,1.1-1.3,2s1,2.2,2.2,2.2,2.2-1,2.2-2.2-.5-1.7-1.3-2v-17.7c.8-.4,1.3-1.1,1.3-2Z"/>
    <path class="st32" d="M133.3,99.2c.9,0,1.7-.5,2-1.3h9.6c.4.8,1.1,1.3,2,1.3s2.2-1,2.2-2.2-1-2.2-2.2-2.2-1.7.5-2,1.3h-9.6c-.4-.8-1.1-1.3-2-1.3s-2.2,1-2.2,2.2,1,2.2,2.2,2.2Z"/>
    <path class="st38" d="M144,143.3v-10.7l7.5-7.5c.8.3,1.7.1,2.4-.5.4-.4.7-1,.7-1.6s-.2-1.2-.7-1.6c-.8-.8-2.3-.8-3.2,0-.6.6-.8,1.6-.5,2.4l-7.9,7.9c0,0-.1.2-.1.3v11.3c-.8.4-1.3,1.1-1.3,2s1,2.2,2.2,2.2,2.2-1,2.2-2.2-.5-1.7-1.3-2Z"/>
    <path class="st37" d="M138.5,129.6c0-1.2-1-2.2-2.2-2.2s-2.2,1-2.2,2.2.5,1.7,1.3,2v22.5c-.8.4-1.3,1.1-1.3,2s1,2.2,2.2,2.2,2.2-1,2.2-2.2-.5-1.7-1.3-2v-22.5c.8-.4,1.3-1.1,1.3-2Z"/>
    <path class="st34" d="M131.6,136c0-1.2-1-2.2-2.2-2.2s-2.2,1-2.2,2.2.5,1.7,1.3,2v11.7c-.8.4-1.3,1.1-1.3,2s1,2.2,2.2,2.2,2.2-1,2.2-2.2-.5-1.7-1.3-2v-11.7c.8-.4,1.3-1.1,1.3-2Z"/>
    <path class="st33" d="M143,105.5c1.2,0,2.2-1,2.2-2.2s-1-2.2-2.2-2.2-1.7.5-2,1.3h-.9c-.4-.8-1.2-1.3-2-1.3s-2.2,1-2.2,2.2,1,2.2,2.2,2.2,1.7-.5,2-1.3h.9c.4.8,1.2,1.3,2,1.3Z"/>
    <path class="st35" d="M115.5,63.4c0-1.2-1-2.2-2.2-2.2s-1.7.5-2,1.3h-2.6c-.4-.8-1.2-1.3-2-1.3s-2.2,1-2.2,2.2,1,2.2,2.2,2.2,1.7-.5,2-1.3h2.6c.4.8,1.1,1.3,2,1.3s2.2-1,2.2-2.2Z"/>
    <path class="st36" d="M108.6,122.1c-.4-.8-1.1-1.3-2-1.3s-2.2,1-2.2,2.2,1,2.2,2.2,2.2,1.7-.5,2-1.3h2.6c.4.8,1.1,1.3,2,1.3s2.2-1,2.2-2.2-1-2.2-2.2-2.2-1.7.5-2,1.3h-2.6Z"/>
    <path class="st40" d="M133.1,79.9c-.4.5-.5,1.1-.4,1.7,0,.6.4,1.1.9,1.5.4.3.9.4,1.3.4s.2,0,.3,0c.6,0,1.1-.4,1.5-.9.5-.7.6-1.7.2-2.4l16-21.5c.9.2,1.7-.1,2.3-.8.4-.5.5-1.1.4-1.7,0-.6-.4-1.1-.9-1.5-1-.7-2.4-.5-3.1.5-.5.7-.6,1.7-.2,2.4l-16,21.5c-.9-.2-1.7.1-2.3.8Z"/>
    <path class="st39" d="M159.6,62.7c.4-.5.5-1.1.4-1.7s-.4-1.1-.9-1.5c-.5-.4-1.1-.5-1.7-.4s-1.1.4-1.5.9c-.5.7-.6,1.7-.2,2.4l-13.6,18.3c-.9-.2-1.7.1-2.3.8-.7,1-.5,2.4.5,3.1.4.3.9.4,1.3.4.7,0,1.4-.3,1.8-.9.5-.7.6-1.7.2-2.4l13.6-18.3c.9.2,1.7-.1,2.3-.8Z"/>
    <path class="st21" d="M141.7,108.6c-.9.9-.9,2.3,0,3.2.4.4,1,.7,1.6.7.6,0,1.2-.2,1.6-.7.6-.6.8-1.6.5-2.4l7.3-7.3c0,0,.1-.2.1-.3v-22.2l8.8-11.8c.9.2,1.7-.1,2.3-.8.7-1,.5-2.4-.5-3.1-1-.7-2.4-.5-3.1.5-.5.7-.6,1.7-.2,2.4l-9.1,12.2c0,0,0,.1,0,.2v22.1l-6.8,6.9c-.8-.3-1.7-.1-2.4.5Z"/>
    <path class="st22" d="M159.1,105.3v-22.6l7.4-9.8c.9.2,1.7-.1,2.3-.8.4-.5.5-1.1.4-1.7s-.4-1.1-.9-1.5c-1-.7-2.4-.5-3.1.5-.5.7-.6,1.7-.2,2.4l-7.6,10.2c0,0,0,.1,0,.2v22.5l-9,9c-.8-.3-1.7-.1-2.4.5-.4.4-.7,1-.7,1.6,0,.6.2,1.2.7,1.6.4.4,1,.7,1.6.7s1.2-.2,1.6-.7c.6-.6.8-1.6.5-2.4l9.4-9.5c0,0,.1-.2.1-.3Z"/>
    <path class="st10" d="M155.6,118.7c.9,0,1.7-.5,2-1.3h3.8c0,0,.2,0,.3-.1l11.1-11.1c0,0,.1-.2.1-.3v-11.4c.8-.4,1.3-1.1,1.3-2s-1-2.2-2.2-2.2-2.2,1-2.2,2.2.5,1.7,1.3,2v10.8l-10.3,10.3h-3.1c-.4-.8-1.2-1.3-2-1.3s-2.2,1-2.2,2.2,1,2.2,2.2,2.2Z"/>
    <path class="st9" d="M180,107.5v-19.9c0,0,0-.2-.1-.3l-3.1-3.2c.3-.8.1-1.7-.5-2.4-.4-.4-1-.7-1.6-.7h0c-.6,0-1.2.2-1.6.7-.9.9-.9,2.3,0,3.2.6.6,1.6.8,2.4.5l2.7,2.7v18.6l-21.4,21.4c-.8-.3-1.7-.1-2.4.5-.9.9-.9,2.3,0,3.2.4.4,1,.7,1.6.7h0c.6,0,1.2-.2,1.6-.7.6-.6.8-1.6.5-2.4l21.8-21.8c0,0,.1-.2.1-.3Z"/>
    <path class="st12" d="M185.4,97.8c-1.2,0-2.2,1-2.2,2.2s.5,1.7,1.3,2v10.5l-26.3,25.6h-4.5c-.4-.8-1.1-1.3-2-1.3s-2.2,1-2.2,2.2,1,2.2,2.2,2.2,1.7-.5,2-1.3h5.1c0,0,.2,0,.3-.1l27.2-26.4c0,0,.1-.2.1-.3v-11.2c.8-.4,1.3-1.1,1.3-2s-1-2.2-2.2-2.2Z"/>
    <path class="st17" d="M169.2,55l11.1,11.4v13.4c0,0,0,.2.1.3l4,4.1v5.9c-.8.4-1.3,1.1-1.3,2s1,2.2,2.2,2.2,2.2-1,2.2-2.2-.5-1.7-1.3-2v-6.5c0,0,0-.2-.1-.3l-4-4.1v-13.4c0,0,0-.2-.1-.3l-11.6-11.9c.3-.8.1-1.7-.5-2.4-.9-.9-2.3-.9-3.2,0-.9.9-.9,2.3,0,3.2.6.6,1.5.8,2.4.5Z"/>
    <path class="st14" d="M175.4,68.3l-19.1-19.2c0,0-.2-.1-.3-.1h-7.5c-.4-.8-1.1-1.3-2-1.3s-2.2,1-2.2,2.2,1,2.2,2.2,2.2,1.7-.5,2-1.3h6.9l18.2,18.3v4.4c-.8.4-1.3,1.1-1.3,2s1,2.2,2.2,2.2,2.2-1,2.2-2.2-.5-1.7-1.3-2v-5c0,0,0-.2-.1-.3Z"/>
    <path class="st16" d="M60.6,48.3c.6-.6.8-1.5.5-2.4l7.6-7.5h10.9c0,0,.2,0,.3-.1l9.7-9.6h40.8l9.7,9.6c0,0,.2.1.3.1h10.9l7.6,7.5c-.3.8-.1,1.7.5,2.4.4.4,1,.6,1.6.6s1.2-.2,1.6-.7c.4-.4.6-1,.6-1.6,0-.6-.2-1.2-.7-1.6-.6-.6-1.6-.8-2.4-.5l-8.1-7.9c0,0-.2-.1-.3-.1h-10.9l-9.7-9.6c0,0-.2-.1-.3-.1h-42c0,0-.2,0-.3.1l-9.7,9.6h-10.9c0,0-.2,0-.3.1l-8.1,7.9c-.8-.3-1.7-.1-2.4.5-.9.9-.9,2.3,0,3.2.9.9,2.3.9,3.2,0Z"/>
    <path class="st18" d="M145.6,41.2c-.9,0-1.7.5-2,1.3h-6.3l-8.7-8.7c0,0-.2-.1-.3-.1h-36.9c0,0-.2,0-.3.1l-8.7,8.7h-6.3c-.4-.8-1.1-1.3-2-1.3s-2.2,1-2.2,2.2,1,2.2,2.2,2.2,1.7-.5,2-1.3h6.9c0,0,.2,0,.3-.1l8.7-8.7h35.7l8.7,8.7c0,0,.2.1.3.1h6.9c.4.8,1.1,1.3,2,1.3s2.2-1,2.2-2.2-1-2.2-2.2-2.2Z"/>
    <path class="st15" d="M133.1,51.1h3.1c.4.8,1.1,1.3,2,1.3s2.2-1,2.2-2.2-1-2.2-2.2-2.2-1.7.5-2,1.3h-2.5l-8.1-8.1c0,0-.2-.1-.3-.1h-28.2c-.4-.8-1.2-1.3-2-1.3s-2.2,1-2.2,2.2,1,2.2,2.2,2.2,1.7-.5,2-1.3h27.6l8.1,8.1c0,0,.2.1.3.1Z"/>
    <path class="st11" d="M122.3,145.6c1.2,0,2.2-1,2.2-2.2s-1-2.2-2.2-2.2-1.7.5-2,1.3h-2.6l-6.1-7.9c0,0-.2-.1-.3-.1h-26.6c-.4-.8-1.1-1.3-2-1.3s-2.2,1-2.2,2.2,1,2.2,2.2,2.2,1.7-.5,2-1.3h25.8l6.1,7.9c0,0,.2.1.3.1h3.3c.4.8,1.1,1.3,2,1.3Z"/>
    <path class="st13" d="M82.7,131.8c.9,0,1.7-.5,2-1.3h12.1c.1,0,.2,0,.3-.2l11.1-14.9c.9.2,1.7-.1,2.3-.8.4-.5.5-1.1.4-1.7,0-.6-.4-1.1-.9-1.5-.5-.4-1.1-.5-1.7-.4-.6,0-1.1.4-1.5.9-.5.7-.6,1.7-.2,2.4l-10.7,14.3h-11.4c-.4-.8-1.2-1.3-2-1.3s-2.2,1-2.2,2.2,1,2.2,2.2,2.2Z"/>
    <path class="st19" d="M122.6,130.2h4.6c.4.8,1.1,1.3,2,1.3s2.2-1,2.2-2.2-1-2.2-2.2-2.2-1.7.5-2,1.3h-3.8l-7.5-9.8c.4-.8.4-1.7-.2-2.4-.4-.5-.9-.8-1.5-.9-.6,0-1.2,0-1.7.4-1,.8-1.2,2.2-.4,3.2.5.7,1.4,1,2.3.8l7.9,10.3c0,0,.2.1.3.1Z"/>
  </g>
  <g>
    <path class="st20" d="M19.4,211.8l-9,11.1H.3l14.1-18.5L0,186.6h10.3l9.8,11,8.9-11h10l-14,18.3,14.5,18h-10.3l-9.9-11.1Z"/>
    <path class="st41" d="M43.2,201.3h15.1v6.5h-15.1v-6.5Z"/>
    <path class="st41" d="M84.2,222.9h-16.9v-36.3h16.3c7.4,0,11.8,3.7,11.8,9.4s-2.6,7.2-6.2,8.3c4.2.9,7,4.6,7,8.7,0,6-4.4,9.9-12.1,9.9ZM81.9,193.7h-5.8v7.6h5.8c2.9,0,4.5-1.3,4.5-3.8s-1.6-3.8-4.5-3.8ZM82.5,207.8h-6.4v8h6.5c2.9,0,4.7-1.3,4.7-3.9s-1.8-4.1-4.8-4.1Z"/>
    <path class="st41" d="M116.2,186.6c8.9,0,13.3,5.1,13.3,11.4s-2.5,8.8-8.1,10.5l8.4,14.4h-9l-7.8-13.7h-2.9v13.7h-8.8v-36.3h14.8ZM115.7,194h-5.5v9h5.5c3.3,0,4.9-1.7,4.9-4.6s-1.6-4.4-4.9-4.4Z"/>
    <path class="st41" d="M157.7,216.5h-13.6l-2.2,6.4h-9.3l13.1-36.3h10.2l13.1,36.3h-9.4l-2.2-6.4ZM150.9,196.4l-4.4,13.3h8.9l-4.5-13.3Z"/>
    <path class="st41" d="M173.2,186.6h8.8v36.3h-8.8v-36.3Z"/>
    <path class="st41" d="M220.9,186.6v36.3h-8.8l-14.8-22.4v22.4h-8.8v-36.3h8.8l14.8,22.5v-22.5h8.8Z"/>
  </g>
  <g>
    <path class="st41" d="M9.7,240.8c0,3.5-2.4,5.6-6,5.6H0v-11.4h3.7c3.6,0,6,2.2,6,5.7ZM3.7,244.9c2.7,0,4.1-1.5,4.1-4.1s-1.4-4.2-4.1-4.2h-1.8v8.3h1.8Z"/>
    <path class="st41" d="M18.4,244.1h-4.8l-.8,2.3h-1.9l4.1-11.4h2.2l4.1,11.4h-2l-.8-2.3ZM16.1,237.3l-1.9,5.3h3.7l-1.8-5.3Z"/>
    <path class="st41" d="M22.4,235h7.9v1.5h-3v9.8h-1.9v-9.8h-3v-1.5Z"/>
    <path class="st41" d="M39,244.1h-4.8l-.8,2.3h-1.9l4.1-11.4h2.2l4.1,11.4h-2l-.8-2.3ZM36.7,237.3l-1.9,5.3h3.7l-1.8-5.3Z"/>
    <path class="st41" d="M54.7,244.1h-4.8l-.8,2.3h-1.9l4.1-11.4h2.2l4.1,11.4h-2l-.8-2.3ZM52.3,237.3l-1.9,5.3h3.7l-1.8-5.3Z"/>
    <path class="st41" d="M68.6,235v11.4h-1.9l-5.6-8.5v8.5h-1.9v-11.4h1.9l5.6,8.5v-8.5h1.9Z"/>
    <path class="st41" d="M77.9,244.1h-4.8l-.8,2.3h-1.9l4.1-11.4h2.2l4.1,11.4h-2l-.8-2.3ZM75.5,237.3l-1.9,5.3h3.7l-1.8-5.3Z"/>
    <path class="st41" d="M84.3,235v9.9h3.8v1.5h-5.7v-11.4h1.9Z"/>
    <path class="st41" d="M88.7,235h2.1l2.6,5.6,2.6-5.6h2.1l-3.8,7.2v4.1h-1.9v-4.1l-3.8-7.2Z"/>
    <path class="st41" d="M99,235h7.9v1.5h-3v9.8h-1.9v-9.8h-3v-1.5Z"/>
    <path class="st41" d="M108.8,235h1.9v11.4h-1.9v-11.4Z"/>
    <path class="st41" d="M118.3,234.9c2.4,0,4.4,1.2,5.3,3.4h-2.2c-.6-1.2-1.7-1.8-3-1.8-2.3,0-3.9,1.6-3.9,4.2s1.6,4.2,3.9,4.2,2.4-.6,3-1.8h2.2c-.9,2.2-2.9,3.4-5.3,3.4s-5.8-2.4-5.8-5.8,2.6-5.8,5.8-5.8Z"/>
    <path class="st41" d="M129.5,246.5c-2.3,0-4-1.2-4-3.3h2c0,.9.7,1.7,2,1.7s2-.7,2-1.7c0-2.7-6-1-6-5.1s1.6-3.2,3.9-3.2,3.7,1.1,3.9,3.1h-2.1c0-.8-.7-1.5-1.9-1.5-1.1,0-1.9.5-1.9,1.6,0,2.6,6,1,6,5.1s-1.4,3.3-3.9,3.3Z"/>
    <path class="st41" d="M143.8,241.8h-2.1v4.6h-1.9v-11.4h3.9c2.7,0,4,1.5,4,3.4s-1.1,3.4-4,3.4ZM143.8,240.3c1.5,0,2.1-.7,2.1-1.8s-.7-1.9-2.1-1.9h-2.1v3.7h2.1Z"/>
    <path class="st41" d="M151.4,235v9.9h3.8v1.5h-5.7v-11.4h1.9Z"/>
    <path class="st41" d="M163.7,244.1h-4.8l-.8,2.3h-1.9l4.1-11.4h2.2l4.1,11.4h-2l-.8-2.3ZM161.3,237.3l-1.9,5.3h3.7l-1.8-5.3Z"/>
    <path class="st41" d="M167.6,235h7.9v1.5h-3v9.8h-1.9v-9.8h-3v-1.5Z"/>
    <path class="st41" d="M177.5,235h6.7v1.5h-4.8v3.3h3.8v1.5h-3.8v5h-1.9v-11.4Z"/>
    <path class="st41" d="M191,246.5c-3.2,0-5.8-2.4-5.8-5.8s2.6-5.8,5.8-5.8,5.8,2.4,5.8,5.8-2.6,5.8-5.8,5.8ZM191,244.9c2.3,0,3.9-1.6,3.9-4.2s-1.6-4.2-3.9-4.2-3.9,1.6-3.9,4.2,1.6,4.2,3.9,4.2Z"/>
    <path class="st41" d="M202.6,235c2.7,0,4,1.6,4,3.4s-.7,2.8-2.6,3.3l2.8,4.7h-2.2l-2.6-4.5h-1.4v4.5h-1.9v-11.4h3.9ZM202.6,236.6h-2.1v3.8h2.1c1.5,0,2.1-.8,2.1-1.9s-.7-1.9-2.1-1.9Z"/>
    <path class="st41" d="M209,235h2l4,8.9,4-8.9h2v11.4h-1.9v-7.8l-3.5,7.8h-1.3l-3.5-7.8v7.8h-1.9v-11.4Z"/>
  </g>
</svg>